<svg width="312" height="285" viewBox="0 0 312 285" fill="none" xmlns="http://www.w3.org/2000/svg">
<rect width="312" height="285" fill="#EADDFF"/>
<path fill-rule="evenodd" clip-rule="evenodd" d="M202.802 114C202.802 137.61 181.849 156.75 156.002 156.75C130.155 156.75 109.202 137.61 109.202 114C109.202 90.3898 130.155 71.25 156.002 71.25C181.849 71.25 202.802 90.3898 202.802 114ZM187.202 114C187.202 129.74 173.233 142.5 156.002 142.5C138.771 142.5 124.802 129.74 124.802 114C124.802 98.2599 138.771 85.5 156.002 85.5C173.233 85.5 187.202 98.2599 187.202 114Z" fill="black"/>
<path d="M156.002 178.125C105.502 178.125 62.4742 205.402 46.084 243.618C50.0768 247.24 54.2829 250.666 58.6835 253.878C70.8885 218.792 109.176 192.375 156.002 192.375C202.828 192.375 241.115 218.792 253.32 253.879C257.721 250.666 261.927 247.24 265.92 243.618C249.53 205.402 206.502 178.125 156.002 178.125Z" fill="black"/>
</svg>
